<mxfile host="app.diagrams.net" modified="2024-04-05T05:49:35.125Z" agent="Mozilla/5.0 (Windows NT 10.0; Win64; x64) AppleWebKit/537.36 (KHTML, like Gecko) Chrome/123.0.0.0 Safari/537.36" etag="vytCyKPe7ScY9FhJD36U" version="24.2.2" type="github">
  <diagram id="C5RBs43oDa-KdzZeNtuy" name="Page-1">
    <mxGraphModel dx="1050" dy="557" grid="1" gridSize="10" guides="1" tooltips="1" connect="1" arrows="1" fold="1" page="1" pageScale="1" pageWidth="827" pageHeight="1169" math="0" shadow="0">
      <root>
        <mxCell id="WIyWlLk6GJQsqaUBKTNV-0" />
        <mxCell id="WIyWlLk6GJQsqaUBKTNV-1" parent="WIyWlLk6GJQsqaUBKTNV-0" />
        <mxCell id="RDx9U8Zktr910mlL7_Or-173" value="User" style="shape=umlLifeline;perimeter=lifelinePerimeter;whiteSpace=wrap;container=1;dropTarget=0;collapsible=0;recursiveResize=0;outlineConnect=0;portConstraint=eastwest;newEdgeStyle={&quot;edgeStyle&quot;:&quot;elbowEdgeStyle&quot;,&quot;elbow&quot;:&quot;vertical&quot;,&quot;curved&quot;:0,&quot;rounded&quot;:0};size=65;" vertex="1" parent="WIyWlLk6GJQsqaUBKTNV-1">
          <mxGeometry x="20" y="20" width="150" height="1355" as="geometry" />
        </mxCell>
        <mxCell id="RDx9U8Zktr910mlL7_Or-174" value="ReactApp" style="shape=umlLifeline;perimeter=lifelinePerimeter;whiteSpace=wrap;container=1;dropTarget=0;collapsible=0;recursiveResize=0;outlineConnect=0;portConstraint=eastwest;newEdgeStyle={&quot;edgeStyle&quot;:&quot;elbowEdgeStyle&quot;,&quot;elbow&quot;:&quot;vertical&quot;,&quot;curved&quot;:0,&quot;rounded&quot;:0};size=65;fillColor=#dae8fc;strokeColor=#6c8ebf;" vertex="1" parent="WIyWlLk6GJQsqaUBKTNV-1">
          <mxGeometry x="339" y="20" width="150" height="1355" as="geometry" />
        </mxCell>
        <mxCell id="RDx9U8Zktr910mlL7_Or-175" value="Backend" style="shape=umlLifeline;perimeter=lifelinePerimeter;whiteSpace=wrap;container=1;dropTarget=0;collapsible=0;recursiveResize=0;outlineConnect=0;portConstraint=eastwest;newEdgeStyle={&quot;edgeStyle&quot;:&quot;elbowEdgeStyle&quot;,&quot;elbow&quot;:&quot;vertical&quot;,&quot;curved&quot;:0,&quot;rounded&quot;:0};size=65;" vertex="1" parent="WIyWlLk6GJQsqaUBKTNV-1">
          <mxGeometry x="685" y="20" width="150" height="1355" as="geometry" />
        </mxCell>
        <mxCell id="RDx9U8Zktr910mlL7_Or-176" value="Database" style="shape=umlLifeline;perimeter=lifelinePerimeter;whiteSpace=wrap;container=1;dropTarget=0;collapsible=0;recursiveResize=0;outlineConnect=0;portConstraint=eastwest;newEdgeStyle={&quot;edgeStyle&quot;:&quot;elbowEdgeStyle&quot;,&quot;elbow&quot;:&quot;vertical&quot;,&quot;curved&quot;:0,&quot;rounded&quot;:0};size=65;" vertex="1" parent="WIyWlLk6GJQsqaUBKTNV-1">
          <mxGeometry x="894" y="20" width="150" height="1355" as="geometry" />
        </mxCell>
        <mxCell id="RDx9U8Zktr910mlL7_Or-177" value="alt" style="shape=umlFrame;dashed=1;pointerEvents=0;dropTarget=0;strokeColor=#B3B3B3;height=20;width=30" vertex="1" parent="WIyWlLk6GJQsqaUBKTNV-1">
          <mxGeometry x="303" y="442" width="677" height="400" as="geometry" />
        </mxCell>
        <mxCell id="RDx9U8Zktr910mlL7_Or-178" value="[User is admin]" style="text;strokeColor=none;fillColor=none;align=center;verticalAlign=middle;whiteSpace=wrap;" vertex="1" parent="RDx9U8Zktr910mlL7_Or-177">
          <mxGeometry x="30" width="647" height="20" as="geometry" />
        </mxCell>
        <mxCell id="RDx9U8Zktr910mlL7_Or-179" value="[User is normal]" style="shape=line;dashed=1;whiteSpace=wrap;verticalAlign=top;labelPosition=center;verticalLabelPosition=middle;align=center;strokeColor=#B3B3B3;" vertex="1" parent="RDx9U8Zktr910mlL7_Or-177">
          <mxGeometry y="244" width="677" height="3" as="geometry" />
        </mxCell>
        <mxCell id="RDx9U8Zktr910mlL7_Or-180" value="alt" style="shape=umlFrame;dashed=1;pointerEvents=0;dropTarget=0;strokeColor=#B3B3B3;height=20;width=30" vertex="1" parent="WIyWlLk6GJQsqaUBKTNV-1">
          <mxGeometry x="293" y="341" width="697" height="612" as="geometry" />
        </mxCell>
        <mxCell id="RDx9U8Zktr910mlL7_Or-181" value="[User is authenticated]" style="text;strokeColor=none;fillColor=none;align=center;verticalAlign=middle;whiteSpace=wrap;" vertex="1" parent="RDx9U8Zktr910mlL7_Or-180">
          <mxGeometry x="30" width="667" height="20" as="geometry" />
        </mxCell>
        <mxCell id="RDx9U8Zktr910mlL7_Or-182" value="[User authentication failed]" style="shape=line;dashed=1;whiteSpace=wrap;verticalAlign=top;labelPosition=center;verticalLabelPosition=middle;align=center;strokeColor=#B3B3B3;" vertex="1" parent="RDx9U8Zktr910mlL7_Or-180">
          <mxGeometry y="516" width="697" height="3" as="geometry" />
        </mxCell>
        <mxCell id="RDx9U8Zktr910mlL7_Or-183" value="loop" style="shape=umlFrame;dashed=1;pointerEvents=0;dropTarget=0;strokeColor=#B3B3B3;height=20;width=40" vertex="1" parent="WIyWlLk6GJQsqaUBKTNV-1">
          <mxGeometry x="85" y="963" width="685" height="209" as="geometry" />
        </mxCell>
        <mxCell id="RDx9U8Zktr910mlL7_Or-184" value="[JWT token validation]" style="text;strokeColor=none;fillColor=none;align=center;verticalAlign=middle;whiteSpace=wrap;" vertex="1" parent="RDx9U8Zktr910mlL7_Or-183">
          <mxGeometry x="40" width="645" height="20" as="geometry" />
        </mxCell>
        <mxCell id="RDx9U8Zktr910mlL7_Or-185" value="Enter login credentials" style="verticalAlign=bottom;endArrow=block;edgeStyle=elbowEdgeStyle;elbow=vertical;curved=0;rounded=0;" edge="1" parent="WIyWlLk6GJQsqaUBKTNV-1" source="RDx9U8Zktr910mlL7_Or-173" target="RDx9U8Zktr910mlL7_Or-174">
          <mxGeometry relative="1" as="geometry">
            <Array as="points">
              <mxPoint x="265" y="129" />
            </Array>
          </mxGeometry>
        </mxCell>
        <mxCell id="RDx9U8Zktr910mlL7_Or-186" value="Send login request" style="verticalAlign=bottom;endArrow=block;edgeStyle=elbowEdgeStyle;elbow=vertical;curved=0;rounded=0;" edge="1" parent="WIyWlLk6GJQsqaUBKTNV-1" source="RDx9U8Zktr910mlL7_Or-174" target="RDx9U8Zktr910mlL7_Or-175">
          <mxGeometry relative="1" as="geometry">
            <Array as="points">
              <mxPoint x="597" y="183" />
            </Array>
          </mxGeometry>
        </mxCell>
        <mxCell id="RDx9U8Zktr910mlL7_Or-187" value="Check user type" style="curved=1;rounded=0;" edge="1" parent="WIyWlLk6GJQsqaUBKTNV-1" source="RDx9U8Zktr910mlL7_Or-175" target="RDx9U8Zktr910mlL7_Or-175">
          <mxGeometry relative="1" as="geometry">
            <Array as="points">
              <mxPoint x="810" y="237" />
              <mxPoint x="810" y="267" />
            </Array>
          </mxGeometry>
        </mxCell>
        <mxCell id="RDx9U8Zktr910mlL7_Or-188" value="Log login request" style="verticalAlign=bottom;endArrow=block;edgeStyle=elbowEdgeStyle;elbow=vertical;curved=0;rounded=0;" edge="1" parent="WIyWlLk6GJQsqaUBKTNV-1" source="RDx9U8Zktr910mlL7_Or-175" target="RDx9U8Zktr910mlL7_Or-176">
          <mxGeometry relative="1" as="geometry">
            <Array as="points">
              <mxPoint x="875" y="321" />
            </Array>
          </mxGeometry>
        </mxCell>
        <mxCell id="RDx9U8Zktr910mlL7_Or-189" value="User type (Admin/Normal)" style="verticalAlign=bottom;endArrow=block;edgeStyle=elbowEdgeStyle;elbow=vertical;curved=0;rounded=0;dashed=1;dashPattern=2 3;" edge="1" parent="WIyWlLk6GJQsqaUBKTNV-1" source="RDx9U8Zktr910mlL7_Or-175" target="RDx9U8Zktr910mlL7_Or-174">
          <mxGeometry relative="1" as="geometry">
            <Array as="points">
              <mxPoint x="597" y="422" />
            </Array>
          </mxGeometry>
        </mxCell>
        <mxCell id="RDx9U8Zktr910mlL7_Or-190" value="Display admin functionalities" style="curved=1;rounded=0;" edge="1" parent="WIyWlLk6GJQsqaUBKTNV-1" source="RDx9U8Zktr910mlL7_Or-174" target="RDx9U8Zktr910mlL7_Or-174">
          <mxGeometry relative="1" as="geometry">
            <Array as="points">
              <mxPoint x="464" y="523" />
              <mxPoint x="464" y="553" />
            </Array>
          </mxGeometry>
        </mxCell>
        <mxCell id="RDx9U8Zktr910mlL7_Or-191" value="Sync data to Salesforce" style="verticalAlign=bottom;endArrow=block;edgeStyle=elbowEdgeStyle;elbow=vertical;curved=0;rounded=0;" edge="1" parent="WIyWlLk6GJQsqaUBKTNV-1" source="RDx9U8Zktr910mlL7_Or-174" target="RDx9U8Zktr910mlL7_Or-175">
          <mxGeometry relative="1" as="geometry">
            <Array as="points">
              <mxPoint x="597" y="607" />
            </Array>
          </mxGeometry>
        </mxCell>
        <mxCell id="RDx9U8Zktr910mlL7_Or-192" value="Log sync request" style="verticalAlign=bottom;endArrow=block;edgeStyle=elbowEdgeStyle;elbow=vertical;curved=0;rounded=0;" edge="1" parent="WIyWlLk6GJQsqaUBKTNV-1" source="RDx9U8Zktr910mlL7_Or-175" target="RDx9U8Zktr910mlL7_Or-176">
          <mxGeometry relative="1" as="geometry">
            <Array as="points">
              <mxPoint x="875" y="661" />
            </Array>
          </mxGeometry>
        </mxCell>
        <mxCell id="RDx9U8Zktr910mlL7_Or-193" value="Display user profile" style="curved=1;rounded=0;" edge="1" parent="WIyWlLk6GJQsqaUBKTNV-1" source="RDx9U8Zktr910mlL7_Or-174" target="RDx9U8Zktr910mlL7_Or-174">
          <mxGeometry relative="1" as="geometry">
            <Array as="points">
              <mxPoint x="464" y="762" />
              <mxPoint x="464" y="792" />
            </Array>
          </mxGeometry>
        </mxCell>
        <mxCell id="RDx9U8Zktr910mlL7_Or-194" value="Authentication error" style="verticalAlign=bottom;endArrow=block;edgeStyle=elbowEdgeStyle;elbow=vertical;curved=0;rounded=0;dashed=1;dashPattern=2 3;" edge="1" parent="WIyWlLk6GJQsqaUBKTNV-1" source="RDx9U8Zktr910mlL7_Or-175" target="RDx9U8Zktr910mlL7_Or-174">
          <mxGeometry relative="1" as="geometry">
            <Array as="points">
              <mxPoint x="597" y="933" />
            </Array>
          </mxGeometry>
        </mxCell>
        <mxCell id="RDx9U8Zktr910mlL7_Or-195" value="Perform action (with expired token)" style="verticalAlign=bottom;endArrow=block;edgeStyle=elbowEdgeStyle;elbow=vertical;curved=0;rounded=0;" edge="1" parent="WIyWlLk6GJQsqaUBKTNV-1" source="RDx9U8Zktr910mlL7_Or-173" target="RDx9U8Zktr910mlL7_Or-174">
          <mxGeometry relative="1" as="geometry">
            <Array as="points">
              <mxPoint x="265" y="1044" />
            </Array>
          </mxGeometry>
        </mxCell>
        <mxCell id="RDx9U8Zktr910mlL7_Or-196" value="Send action request with expired token" style="verticalAlign=bottom;endArrow=block;edgeStyle=elbowEdgeStyle;elbow=vertical;curved=0;rounded=0;" edge="1" parent="WIyWlLk6GJQsqaUBKTNV-1" source="RDx9U8Zktr910mlL7_Or-174" target="RDx9U8Zktr910mlL7_Or-175">
          <mxGeometry relative="1" as="geometry">
            <Array as="points">
              <mxPoint x="597" y="1098" />
            </Array>
          </mxGeometry>
        </mxCell>
        <mxCell id="RDx9U8Zktr910mlL7_Or-197" value="Force logout (token expired)" style="verticalAlign=bottom;endArrow=block;edgeStyle=elbowEdgeStyle;elbow=vertical;curved=0;rounded=0;dashed=1;dashPattern=2 3;" edge="1" parent="WIyWlLk6GJQsqaUBKTNV-1" source="RDx9U8Zktr910mlL7_Or-175" target="RDx9U8Zktr910mlL7_Or-174">
          <mxGeometry relative="1" as="geometry">
            <Array as="points">
              <mxPoint x="597" y="1152" />
            </Array>
          </mxGeometry>
        </mxCell>
        <mxCell id="RDx9U8Zktr910mlL7_Or-198" value="Log URL processing" style="verticalAlign=bottom;endArrow=block;edgeStyle=elbowEdgeStyle;elbow=vertical;curved=0;rounded=0;" edge="1" parent="WIyWlLk6GJQsqaUBKTNV-1" source="RDx9U8Zktr910mlL7_Or-175" target="RDx9U8Zktr910mlL7_Or-176">
          <mxGeometry relative="1" as="geometry">
            <Array as="points">
              <mxPoint x="875" y="1216" />
            </Array>
          </mxGeometry>
        </mxCell>
        <mxCell id="RDx9U8Zktr910mlL7_Or-199" value="Log response" style="verticalAlign=bottom;endArrow=block;edgeStyle=elbowEdgeStyle;elbow=vertical;curved=0;rounded=0;dashed=1;dashPattern=2 3;" edge="1" parent="WIyWlLk6GJQsqaUBKTNV-1" source="RDx9U8Zktr910mlL7_Or-176" target="RDx9U8Zktr910mlL7_Or-175">
          <mxGeometry relative="1" as="geometry">
            <Array as="points">
              <mxPoint x="875" y="1270" />
            </Array>
          </mxGeometry>
        </mxCell>
      </root>
    </mxGraphModel>
  </diagram>
</mxfile>
